<svg width="854" height="254" viewBox="0 0 854 254" fill="none" xmlns="http://www.w3.org/2000/svg">
<path d="M71.9438 212.094C72.7304 212.881 75.9958 215.943 77.47 217.202C75.7384 215.839 69.0626 209.3 71.9438 212.094ZM257.335 239.247C255.839 239.764 254.331 240.25 252.814 240.711C257.141 239.454 262.823 237.361 266.602 235.608C267.226 235.325 265.619 236.08 267.091 235.407C268.551 234.724 268.267 234.844 270.364 233.792C272.087 232.963 278.13 229.637 282.463 226.665C284.112 225.56 285.516 224.562 286.444 223.887C296.58 216.239 307.562 207.093 311.533 195.389C311.859 192.677 312.084 190.048 312.188 187.354C310.898 203.439 312.607 187.236 312.252 182.715C312.233 182.23 312.24 181.993 312.095 179.918C311.817 177.868 311.993 173.677 308.952 166.309C306.774 161.771 306.373 161.768 305.841 160.89C305.126 160.182 304.525 158.077 297.532 153.217C307.65 161.414 298.342 152.517 288.666 148.358C288.642 148.346 288.614 148.333 288.584 148.318C286.941 146.93 273.216 143.341 266.963 144.445C264.815 144.597 261.569 145.139 258.855 145.983C256.99 146.569 255.575 147.035 252.972 148.331C251.96 148.847 250.977 149.408 250.014 150.02C239.454 156.474 231.148 167.649 231.941 180.266C231.94 174.498 231.545 180.516 232.405 184.314C232.7 185.774 232.921 186.924 232.953 187.095C233.218 188.519 232.84 186.54 232.391 184.317C231.814 181.539 231.788 178.252 231.965 181.518C232.054 182.461 232.19 183.395 232.376 184.32C233.769 191.544 234.989 198.703 238.718 204.914C235.388 199.11 243.273 212.531 245.444 214.58C244.977 214.032 252.219 222.941 260.293 231.201C266.6 238.108 274.563 242.869 277.048 243.645C277.582 243.867 276.193 243.273 276.455 243.375C276.749 243.404 278.465 244.636 286.193 246.263C286.863 246.407 287.589 246.549 288.369 246.685C290.35 247.013 289.596 246.903 290.643 247.054C291.264 247.148 295.083 247.577 299.174 247.787C300.683 247.702 291.065 248.009 312.144 247.89C306.53 247.993 321.476 247.754 334.019 246.243C340.23 245.615 345.658 244.071 347.804 243.322C346.504 243.751 345.191 244.134 343.865 244.471C350.391 242.67 351.431 241.899 352.855 241.359C357.605 239.35 363.554 236.006 368.221 233.118C369.132 232.557 369.985 232.01 370.773 231.487C376.321 227.66 376.345 227.634 382.364 222.561C380.951 223.783 379.51 224.977 378.045 226.131C382.301 222.75 386.319 219.067 390.171 215.208C381.158 224.038 392.16 213.351 392.784 212.538C393.897 211.37 392.312 213.065 394.17 211.103C394.357 210.895 394.085 211.197 396.902 208.129C402.733 201.665 401.796 202.668 404.213 199.92C404.434 199.667 403.646 200.546 407.805 195.763C421.256 180.698 407.681 195.817 407.241 196.431C406.576 197.185 411.172 192.076 399.903 204.888C403.703 200.608 404.094 200.169 404.518 199.691C404.888 199.261 411.429 191.752 411.821 191.362C415.125 187.718 412.191 190.905 412.836 190.192C413.002 190.01 413.94 188.978 415.229 187.634C418.011 184.644 423.064 180.907 424.613 179.787C429.347 176.768 421.973 180.92 415.242 187.647C415.054 187.845 414.864 188.045 414.673 188.247C414.434 188.505 414.706 188.218 415.249 187.654C416.885 185.813 421.695 181.978 422.053 181.759C433.243 173.827 427.05 178.225 429.502 176.499C430.804 175.622 435.567 172.714 431.174 175.4C441.75 168.912 435.36 172.871 436.03 172.448C437.063 171.827 440.81 169.63 441.28 169.369C441.973 168.975 439.575 170.366 442.306 168.808C442.754 168.552 447.149 166.029 441.469 169.245C449.053 164.941 448.433 165.317 451.034 163.924C456.262 160.975 454.881 161.883 456.953 160.765C462.485 157.797 460.849 158.61 461.14 158.449C462.017 157.967 465.412 156.148 469.293 154.076C474.329 151.356 480.375 148.656 482.609 147.697C481.281 148.269 473.085 151.983 469.298 154.084C468.629 154.441 468.091 154.729 467.737 154.919C463.923 156.975 466.38 155.667 469.312 154.11C472.481 152.417 476.289 150.61 473.247 152.135C475.702 150.891 478.189 149.71 480.696 148.581C485.344 146.636 478.726 149.324 491.278 144.218C493.315 143.344 482.403 147.827 484.589 146.919C485.859 146.337 493.155 143.424 493.3 143.377C493.44 143.297 486.85 145.936 487.883 145.515C490.102 144.448 514.329 135.433 495.912 142.374C501.042 140.418 503.721 139.5 508.176 137.832C510.897 136.816 496.484 142.049 515.573 135.016C516.67 134.612 517.886 134.194 519.232 133.774C519.465 133.718 517.681 134.255 515.579 135.032C512.761 136.071 509.311 137.335 509.152 137.396C508.777 137.537 510.66 136.913 510.979 136.799C511.266 136.696 513.032 136.046 515.603 135.097C523.366 131.903 539.319 129.485 543.504 129.134C542.202 129.259 549.32 128.423 555.92 127.919C560.557 127.542 564.938 127.313 565.939 127.26C566.587 127.223 564.166 127.326 564.857 127.287C569.171 126.986 580.837 126.746 586.256 126.926C592.299 127.082 591.551 127.088 591.881 127.09C594.562 127.219 592.427 127.128 594.048 127.212C596.528 127.129 613.389 129.091 614.197 129.55C614.447 129.602 611.718 129.024 615.365 129.764C615.891 129.979 615.726 129.502 622.607 131.872C623.604 132.273 624.746 132.743 626.057 133.306C635.251 137.444 625.579 132.962 622.625 131.829C621.716 131.468 621.456 131.365 622.632 131.812C622.649 131.819 622.667 131.826 622.684 131.833C630.501 135.119 630.198 135.132 632.28 136.104C632.992 136.461 638.331 139.076 643.734 142.619C639.852 140.091 635.792 137.854 631.631 135.843C635.752 137.747 643.406 142.21 646.415 144.466C647.897 145.544 646.691 144.638 649.847 147.059C650.463 147.652 653.341 149.395 644.833 143.366C644.162 142.867 648.253 145.684 650.037 147.141C650.308 147.363 651.435 148.154 653.622 150.13C653.885 150.365 652.555 149.234 653.026 149.675C653.406 150.197 656.125 151.805 662.341 159.581C662.734 160.087 661.385 158.315 661.77 158.808C661.886 158.954 662.54 159.789 663.234 160.751C664.15 162.007 665.105 163.505 665.27 163.774C665.585 164.257 664.267 162.178 664.641 162.753C666.568 165.692 668.728 169.775 665.083 163.516C666.371 165.561 667.523 167.699 668.513 169.91C667.474 167.529 670.18 173.349 670.993 176.615C673.615 187.054 672.71 188.982 672.911 188.5C672.92 188.051 672.74 185.381 672.877 187.224C673.086 191.602 672.965 190.291 672.898 192.825C672.85 193.807 672.623 195.257 671.9 197.483C671.786 197.89 672.517 195.49 672.487 195.523C672.367 195.491 672.386 198.379 667.333 207.435C668.858 204.781 670.221 202.03 671.321 199.153C670.829 200.89 666.512 209.118 665.996 209.648C661.382 216.05 664.998 212.627 657.051 220.064C656.772 220.271 656.473 220.483 656.15 220.7C655.243 221.328 653.162 222.535 651.019 223.45C645.167 225.615 652.097 223.71 657.063 220.08C659.782 218.052 661.612 215.69 661.769 215.55C661.81 215.442 660.154 217.752 657.074 220.095C651.234 224.612 640.796 226.652 640.312 226.726C638.593 227.039 641.269 226.583 643.982 225.863C646.705 225.164 649.419 224.123 648.133 224.579C647.692 224.797 639.257 227.574 629.777 228.051C620.326 228.763 610.161 227.293 606.85 226.489C602.983 225.656 600.252 224.718 598.493 224.053C596.727 223.376 595.93 222.958 595.888 222.986C593.875 221.963 592.181 220.928 591.336 220.341C581.848 212.524 582.202 211.693 577.946 202.223C577.148 200.046 576.669 198.145 576.464 197.355C576.352 196.892 576.517 197.768 575.992 195.494C575.627 193.958 574.636 188.561 574.685 183.219C574.615 177.606 575.942 172.221 576.168 171.521C576.369 170.82 575.793 172.811 575.445 174.811C575.079 176.808 574.918 178.793 575.012 177.929C575.651 172.002 577.451 166.341 580.611 161.278C581.169 160.384 581.744 159.521 582.359 158.661C584.101 156.3 583.216 157.529 583.996 156.527C584.131 155.919 591.393 148.853 591.209 149.293C590.772 149.534 584.178 155.145 580.601 161.272C577.056 166.978 575.972 172.34 577.111 168.464C577.527 166.905 580.146 161.895 579.725 162.689C579.998 162.205 580.281 161.727 580.575 161.255C588.971 146.89 605.305 140.44 619.987 135.435C630.13 131.324 640.539 127.273 651.359 124.858C641.09 127.155 630.358 131.233 619.994 135.455C614.698 137.464 609.231 139.23 604.117 141.552C601.975 142.369 595.242 146.239 596.094 145.83C602.954 141.416 611.782 138.517 619.999 135.468C626.171 133.042 632.262 130.499 637.805 128.701C638.219 128.564 636.709 129.085 638.252 128.577C641.107 127.545 650.665 124.961 652.296 124.681C652.581 124.596 647.106 125.953 648.776 125.562C653.061 124.555 654.13 124.248 657.829 123.524C659.328 123.229 665.258 122.169 671.361 121.485C676.979 120.837 682.694 120.58 685.029 120.46C690.206 120.109 670.617 121.319 672.065 121.361C685.315 119.958 698.743 120.019 711.247 119.991C711.468 119.992 709.554 119.971 712.345 119.972C717.202 119.978 718.477 120.014 720.835 120.028C723.389 120.048 732.389 120.068 733.589 120.062C733.746 120.063 731.923 120.094 731.642 120.095C727.728 120.108 726.333 120.064 725.974 120.063C724.633 120.057 723.308 120.065 722.092 120.059C720.069 120.049 718.97 120.031 716.303 120.02C714.472 120.013 716.242 120.042 714.472 120.035C713.824 120.029 706.814 119.973 706.161 120.034C706.038 119.968 724.24 120.246 741.061 120.022C754.097 119.877 765.836 116.027 768.132 115.16C763.535 116.765 758.798 117.974 754.016 118.775C763.843 117.34 774.805 112.545 775.539 112.187C784.056 108.293 791.851 102.976 798.805 96.7086C811.108 85.0671 815.09 67.5684 820.576 51.62C823.084 44.7465 822.408 36.5814 818.703 30.4027C818.44 29.7122 816.646 30.4745 815.723 31.5137C814.89 32.3758 814.218 33.5128 813.311 34.6103C812.831 35.1543 812.368 35.7005 811.516 35.9041C810.893 36.0295 810.369 35.7907 810.055 35.5756C809.73 35.3522 809.522 35.1174 809.353 34.9054C809.021 34.4763 808.839 34.1136 808.679 33.7598C808.38 33.0493 808.142 32.3777 808.007 31.0881C807.895 29.7529 807.719 27.7241 807.848 24.1969C807.745 26.49 807.773 28.7924 807.977 31.0908C808.031 31.6817 808.141 32.2652 808.311 32.8375C808.174 32.3802 808.038 31.795 807.972 31.0913C806.859 24.8581 809.675 10.0737 810.978 2.7532C811.015 2.46208 811.059 2.20811 811.108 1.98301C811.172 1.70183 811.237 1.46895 811.352 1.20251C811.419 1.05153 811.496 0.912717 811.591 0.784593C811.69 0.647199 811.878 0.459606 812.088 0.359322C812.304 0.24746 812.595 0.208571 812.822 0.247526C813.034 0.281998 813.178 0.344545 813.321 0.420671C814.253 1.03457 814.424 1.48884 814.707 1.82817C814.995 2.26443 815.597 2.86937 818.448 8.33361C820.996 13.17 821.399 13.9389 822.846 16.459C824.063 18.5723 825.578 20.846 825.991 21.4258C826.311 21.8818 826.409 22.0712 827.205 23.1353C829.818 26.3675 827.643 23.8301 830.417 26.8295C829.707 26.1507 829.022 25.4065 828.375 24.6385C829.278 25.7226 830.346 26.8432 831.347 27.692C834.029 29.8513 835.7 31.0309 831.465 27.8364C831.413 27.7934 831.367 27.7542 831.325 27.7187C830.603 27.0902 831.297 27.6875 830.639 27.0903C819.842 14.4634 819.826 10.2566 820.752 12.9133C822.07 15.2066 826.06 23.1704 831.324 27.7197C832.583 28.7855 833.861 29.6851 835.033 30.3936C836.048 31.0296 838.896 32.65 842.447 33.5088C844.224 33.9516 846.133 34.2127 847.976 34.2647C848.895 34.2917 849.784 34.2694 850.632 34.2083C851.058 34.1778 851.466 34.1379 851.858 34.0923C852.066 34.0681 852.257 34.0438 852.447 34.0199C852.55 34.0073 852.638 33.9958 852.758 33.984C852.838 33.9794 852.821 33.9697 853.019 33.9764C853.043 33.9783 853.07 33.9812 853.106 33.9877C853.124 33.991 853.144 33.9953 853.167 34.0016C853.197 34.0132 853.187 33.9963 853.328 34.0676C853.439 34.1211 853.661 34.3231 853.682 34.6089C853.701 34.886 853.588 35.0307 853.535 35.1038C853.46 35.1938 853.473 35.1726 853.455 35.1912C853.443 35.2026 853.431 35.2123 853.421 35.2209C853.339 35.2864 853.296 35.3076 853.247 35.3351C851.174 36.4516 849.56 36.8006 849.392 36.856C848.497 37.0467 851.807 36.3183 847.452 37.2098C847.034 37.4667 840.02 37.7455 834.956 35.482C829.876 33.4587 826.523 30.8771 830.511 33.3631C831.347 33.8329 834.544 35.5593 838.183 36.5153C841.803 37.5599 845.795 37.4836 847.296 37.2095C841.492 38.5464 830.277 34.2232 826.151 30.4527C825.015 29.5074 824.303 28.7422 824.032 28.4584C821.339 25.3588 824.273 28.963 826.165 30.4359C827.186 31.2462 827.686 31.6184 826.175 30.423C825.401 29.7692 824.103 28.6213 822.432 26.5341C815.128 15.8068 821.823 25.9783 819.122 21.7847C817.816 19.9627 813.838 11.1728 812.749 7.63678C812.571 7.13394 812.439 6.82737 812.353 6.64055C812.243 6.4005 812.188 6.30796 812.201 6.34361C812.136 6.21229 812.077 6.1049 812.024 6.01668C811.977 5.93733 811.889 5.80736 811.841 5.75054C811.746 5.62058 811.645 5.60615 811.766 5.63325C811.906 5.63276 811.897 5.58509 811.851 5.64126C811.806 5.68752 811.742 5.78429 811.71 5.8412C811.55 6.12738 811.499 6.28771 811.505 6.25749C811.5 6.23231 811.719 5.76257 811.601 6.0033C811.007 6.25436 809.688 15.9908 809.374 19.1509C809.329 19.5319 809.441 18.3264 809.394 18.7225C809.301 19.4853 808.254 28.8718 808.191 29.248C808.165 29.4881 808.455 27.2537 808.35 28.174C808.267 29.2499 807.016 38.2721 806.873 38.7676C806.848 39.4644 808.39 28.3356 808.14 30.192C807.531 35.3354 806.211 43.6956 805.027 47.0222C805.365 46.2223 806.531 41.2649 806.792 39.5394C806.733 39.9697 806.237 42.8049 805.615 45.1108C805.009 47.4099 804.286 49.0928 804.927 47.3291C804.143 49.5025 804.641 48.1908 804.244 49.1734L804.264 49.1236C804.25 49.165 804.234 49.2102 804.216 49.2594C804.083 49.5709 803.049 52.6947 802.806 53.3321C802.807 53.3976 803.915 50.1535 803.703 50.8086C803.511 51.2628 803.102 53.0392 802.054 55.1007C800.138 57.8519 799.232 61.4119 799.101 61.9202C798.825 63.0278 799.125 61.5982 799.681 59.8949C800.207 58.1626 801.254 56.3492 801.449 56.0486C801.471 56.0237 800.559 57.3949 799.97 58.9759C799.357 60.5461 798.947 62.2494 798.93 62.2979C798.871 62.4944 799.277 60.7161 799.884 59.1021C800.465 57.4809 801.365 56.0936 801.128 56.4477C800.173 58.0251 799.555 59.7906 799.057 61.6112C799.574 59.5943 800.407 57.3774 801.932 55.0345C802.958 53.059 803.431 50.9918 804.17 49.0889L804.153 49.132C806.079 44.5121 806.584 40.0819 806.922 38.3303C806.274 42.0656 805.558 45.8809 804.135 49.124L804.152 49.0822C803.325 51.2505 802.816 53.3315 801.902 55.0187C800.146 57.725 799.639 59.5282 799.589 59.5284C799.58 59.517 799.936 58.4162 800.435 57.4052C800.924 56.4024 801.553 55.448 801.495 55.5153C801.298 55.8312 800.328 57.3013 799.744 58.9273C799.133 60.5376 798.755 62.1869 798.721 62.3007C798.672 62.4915 798.649 62.5824 798.647 62.5818C798.586 62.5411 800.039 57.1998 801.783 54.954C802.17 54.2292 802.359 53.7022 802.4 53.604C802.536 53.2182 802.236 54.0575 801.746 54.9337C801.249 55.7803 800.714 56.5976 800.719 56.6012C800.736 56.5481 801.19 55.8338 801.709 54.9139C802.597 53.2173 803.17 51.0506 802.718 52.4312C802.494 53.0477 802.182 53.9613 801.674 54.895C800.214 57.0495 799.241 59.799 799.216 59.9585C799.007 60.5843 799.968 57.3315 801.649 54.8813C802.557 53.1189 802.955 51.493 803.02 51.3868C803.027 51.2798 802.44 53.3682 801.623 54.8673C801.136 55.7194 800.723 56.3497 800.699 56.4049C800.66 56.4498 801.073 55.7955 801.603 54.856C802.245 53.6733 802.725 52.0426 803.015 51.1838C803.396 50.0169 802.234 53.3984 802.43 52.8024C802.507 52.626 803.059 50.8874 803.772 48.9416L803.766 48.9561C804.946 46.3358 805.6 42.9633 805.668 42.7179C805.821 42.0257 805.299 44.2372 805.365 43.9147C805.497 43.4309 806.127 40.3975 806.034 40.7915C805.974 40.959 805.181 45.6574 803.691 48.9219C802.939 50.9434 802.402 52.5908 802.394 52.5574C802.414 52.5041 803.062 50.5101 803.659 48.8999C804.483 46.915 804.987 45.4802 803.622 48.8904C803.362 49.5695 803.046 50.4481 802.661 51.5601C802.653 51.6452 801.662 54.3766 801.562 54.4243C800.956 55.8513 803.554 49.5785 801.357 54.7226C800.953 55.4736 800.272 56.4071 799.665 57.7871C800.188 56.5754 800.857 55.6145 801.352 54.7199C802.834 51.4866 803.198 49.6062 803.54 48.8557C803.84 48.1583 803.766 48.3203 803.528 48.8477C802.991 50.2602 801.661 54.1464 802.164 52.6202C802.333 52.1518 802.839 50.5387 803.465 48.8282C804.505 46.5076 805.089 43.6837 805.104 43.6751C804.921 44.429 804.218 46.983 803.875 47.7692C803.856 48.3059 805.699 41.1797 805.248 42.7828C805.124 43.3062 804.402 46.6193 803.398 48.7888L803.393 48.8014C802.906 50.1212 802.563 51.1743 802.523 51.2833C801.514 54.1895 802.721 50.617 802.492 51.2512C802.383 51.5097 801.836 53.3789 801.156 54.614C800.741 55.3534 800.354 55.9478 800.337 55.9893C800.295 56.0458 800.675 55.45 801.147 54.6087C802.033 52.9501 802.842 49.9261 803.183 49.1132C803.511 48.1534 802.242 51.7425 802.476 51.0734C802.702 50.3959 802.977 49.5894 803.283 48.7608L803.292 48.7402C804.911 44.8096 805.913 39.8274 804.009 46.7815C803.928 47.0229 803.611 47.9565 803.257 48.7246L803.248 48.7477C802.933 49.5959 802.663 50.3942 802.646 50.4392C802.281 51.4918 802.678 50.247 803.227 48.74L803.237 48.7154C803.758 47.5759 804.202 46.0754 804.319 45.6418C804.889 43.8925 802.17 52.0486 804.395 45.2567C804.041 46.5114 803.63 47.7174 803.184 48.6911L803.172 48.7196C802.403 50.6921 801.971 52.6065 800.987 54.5221C800.305 55.6968 799.386 57.1091 798.77 58.8899C799.34 57.225 800.262 55.7514 800.984 54.5208C802.032 52.4441 802.516 50.3197 803.151 48.7119L803.163 48.6818C804.375 45.8094 804.661 43.8849 804.708 43.7863C804.684 43.6329 804.501 45.3087 803.108 48.6565L803.094 48.6906C802.472 50.2338 801.99 52.3432 800.915 54.483C800.831 54.638 800.739 54.795 800.643 54.9557C800.742 54.7914 800.833 54.6346 800.915 54.483C802.784 50.107 802.603 49.7557 803.054 48.676L803.069 48.639C803.129 48.5054 803.196 48.3519 803.275 48.1613C803.949 47.2104 805.848 38.4363 804.893 42.4441C804.85 42.9743 803.335 48.1555 803.795 46.5257C806.908 33.8876 804.022 46.3115 803.86 46.2654C805.021 46.3991 808.408 14.4659 809.471 8.9294C809.784 7.52544 809.882 6.26317 810.798 4.84636C810.962 4.65897 811.107 4.46848 811.528 4.34589C811.951 4.24826 812.276 4.39661 812.515 4.57287C812.752 4.76017 812.826 4.86231 812.96 5.03722C813.019 5.11587 813.088 5.22051 813.13 5.28897C813.169 5.35296 813.209 5.41948 813.247 5.48862C813.589 6.11928 813.761 6.58224 813.986 7.20426C814.956 9.95256 815.803 11.9721 816.107 12.6982C817.913 16.8719 816.388 13.4188 816.787 14.3541C816.907 15.4652 823.473 26.5665 824.285 26.7326C825.932 28.5633 824.227 26.7341 824.402 26.921C824.835 27.4105 825.703 28.3852 826.982 29.4557C831.579 33.7236 842.996 37.079 846.706 35.9863C846.637 36.0094 844.226 36.2044 842.571 35.9972C840.922 35.7927 840.034 35.6937 842.995 36.0072C846.459 36.2218 848.244 35.6865 849.188 35.473C850.136 35.2202 850.266 35.1685 850.354 35.1445C851.13 34.8687 851.875 34.5371 852.603 34.1438C845.812 37.8915 836.392 33.7194 830.444 28.759C825.873 24.7363 822.878 19.4948 819.996 14.3723C818.566 11.7836 817.226 9.16308 815.843 6.58163C815.15 5.30119 814.444 3.99558 813.661 2.8439C813.454 2.54504 813.267 2.29157 813.039 2.03828C812.869 1.81994 812.511 1.61855 812.624 1.67075C812.719 1.67859 812.793 1.58761 812.739 1.65145C812.706 1.69237 812.637 1.84299 812.601 1.96026C812.505 2.26696 812.456 2.54447 812.404 2.93562C810.862 12.3589 808.495 21.5851 809.423 30.9554C809.499 31.7626 809.704 32.5735 810.042 33.2818C810.345 33.9839 810.999 34.6038 811.228 34.4811C811.662 34.3978 812.37 33.4968 812.909 32.7495C812.878 32.7817 812.698 33.0317 812.397 33.4119C812.121 33.7619 811.578 34.3958 811.225 34.4645C811.072 34.5646 810.484 34.1423 810.141 33.4341C809.777 32.7403 809.529 31.8625 809.443 30.9534C808.786 24.8177 809.919 17.3501 809.956 17.0826C810.255 15.7716 808.736 22.711 809.461 30.9517C809.536 31.7375 809.735 32.5418 810.07 33.2488C810.367 33.9515 811.031 34.5662 811.22 34.4423C811.615 34.374 812.325 33.4938 812.846 32.7682C813.404 32.0079 813.948 31.2037 814.651 30.4728C815.313 29.7989 816.061 29.2297 816.965 28.8775C817.418 28.7083 817.928 28.5873 818.495 28.6631C819.063 28.7265 819.646 29.105 819.937 29.5616C822.078 32.9679 822.615 35.9655 822.884 37.0273C822.296 34.4244 821.448 31.8832 819.947 29.5548C819.647 29.0837 819.055 28.711 818.496 28.6486C817.936 28.5736 817.442 28.6882 817.007 28.8437C817.39 28.7042 817.843 28.5797 818.402 28.6276C818.953 28.6604 819.622 29.0125 819.962 29.5449C823.491 34.7055 824.844 45.1265 822.004 52.1354C821.804 52.6912 821.602 53.2756 821.422 53.8099C820.764 55.7872 821.601 53.2928 822.027 52.1439C822.155 51.7938 822.233 51.559 822.226 51.5825C822.166 51.764 822.102 51.9526 822.033 52.1458C821.037 54.9587 819.811 58.8398 820.833 55.5938C818.583 62.6165 818.93 61.6038 817.113 66.9878C817.013 67.2666 817.84 64.9632 816.365 69.2159C815.778 71.2456 811.463 81.6768 810.639 82.9731C810.396 83.5488 812.924 78.3942 813.106 77.7035C817.702 66.3274 814.555 74.0603 816.236 69.6064C816.444 68.9089 816.086 70.545 819.732 59.1673C819.167 61.3642 814.674 74.4074 813.611 76.5467C811.935 81.1314 819.06 62.3121 819.894 58.7308C819.423 60.391 820.305 57.3521 821.731 53.1715C821.866 52.7808 821.984 52.4501 822.087 52.1654C823.191 48.7467 822.726 50.3114 823.257 47.8698C824.026 40.4776 823.858 43.49 823.103 37.4339C823.587 41.5534 823.364 34.8337 820.022 29.5042C819.667 28.9326 818.903 28.5397 818.277 28.5353C817.644 28.5103 817.126 28.6806 816.674 28.8758C815.775 29.281 815.104 29.8397 814.562 30.3866C814.038 30.9271 813.671 31.4236 813.378 31.8121C813.732 31.3337 814.104 30.8468 814.555 30.3796C815.192 29.7314 815.914 29.1642 816.828 28.7855C817.287 28.6039 817.806 28.4593 818.421 28.5163C819.033 28.5569 819.72 28.9588 820.052 29.4838C823.039 34.3521 824.043 40.0045 823.595 45.5391C823.641 45.0905 823.675 44.647 823.698 44.1979C823.614 46.2638 823.293 48.313 822.735 50.3073C822.82 49.9855 822.899 49.6628 822.971 49.3428C822.726 50.3787 822.438 51.3194 822.129 52.1805C819.596 59.6303 819.018 61.6866 818.759 62.4032C815.423 72.6646 811.133 84.7372 804.1 93.4936C803.243 94.4414 803.707 94.3607 799.905 97.9496C798.741 98.9779 797.145 100.388 794.915 102.157C791.855 104.52 794.766 102.292 791.247 104.899C786.821 108.089 786.814 107.892 785.441 108.768C781.466 111.182 778.884 112.406 778.499 112.61C773.357 115.229 765.409 118.128 759.217 119.469C759.102 119.496 762.309 118.777 758.303 119.686C757.255 119.92 749.679 121.513 741.098 121.647C738.374 121.706 735.549 121.727 732.823 121.742C735.582 121.739 738.346 121.724 741.099 121.666C741.26 121.663 741.42 121.659 741.581 121.655C741.449 121.658 741.288 121.662 741.099 121.666C736.371 121.845 714.338 121.706 719.992 121.764C723.584 121.798 732.38 121.766 733.346 121.805C725.338 121.732 681.238 121.745 677.874 122.589C677.397 122.619 680.311 122.4 679.655 122.444C679.321 122.462 674.898 122.758 671.556 123.159C669.754 123.369 668.278 123.566 667.814 123.627C667.025 123.722 671.431 123.145 671.078 123.191C670.755 123.129 658.33 125.014 657.648 125.281C660.655 124.632 669.243 123.39 664.75 124.074C664.172 124.157 661.173 124.633 660.479 124.766C655.675 125.669 665.063 123.863 671.558 123.174C673.805 122.912 675.712 122.754 676.492 122.689C674.96 122.818 673.27 122.979 671.558 123.181C659.463 124.475 643.581 128.002 631.913 132.634C626.475 134.648 639.97 129.65 633.804 131.887C621.088 136.729 630.43 133.193 630.032 133.338C628.232 134.033 623.977 135.761 620.607 137.052C618.07 138.01 616.06 138.713 616.068 138.748C611.42 140.445 612.871 139.779 606.452 142.413C607.29 142.062 608.136 141.72 608.99 141.387C601.449 143.628 588.427 153.331 589.624 152.866C591.853 150.449 598.97 145.885 599.67 145.65C600.638 145.209 603.004 143.329 614.132 139.377C618.543 137.466 596.859 146.368 606.665 142.19C601.777 143.771 586.974 152.472 581.953 162.113C579.767 165.616 578.738 168.668 578.367 169.791C578.305 170.295 578.672 167.971 577.062 175.022C576.398 178.394 578.054 170.276 577.76 171.821C577.479 172.876 576.3 177.066 576.307 183.219C575.681 195.329 582.692 217.492 599.055 222.551C609.086 226.202 618.25 226.432 622.084 226.564C622.903 226.581 622.603 226.591 623.408 226.6C625.885 226.723 634.912 226.18 639.238 225.226C630.184 226.738 647.874 223.947 651.698 221.306C653.959 220.211 655.217 219.342 656.068 218.73C657.489 217.651 657.877 217.289 659.163 215.972C664.212 210.495 670.071 201.088 671.289 192.756C671.484 188.411 671.077 184.481 670.559 181.582C670.969 182.005 667.006 167.44 661.969 161.667C661.843 161.493 661.719 161.324 661.599 161.161C658.298 156.562 652.317 150.913 657.613 156.398C651.089 149.132 642.471 143.253 634.339 139.023C632.994 138.327 634.86 139.263 632.552 138.088C632.341 137.986 632.05 137.842 630.041 136.882C626.263 135.098 623.691 134.058 622.004 133.371C616.283 131.405 620.696 132.855 618.183 132.087C616.337 131.585 614.967 131.3 613.943 131.091C616.654 131.64 619.475 132.316 622.022 133.326C629.502 136.29 636.027 139.809 638.132 141.049C636.677 140.133 629.237 136.13 622.028 133.312C617.52 131.576 612.836 130.865 610.514 130.456C610.305 130.422 611.035 130.52 610.824 130.485C610.819 130.485 610.815 130.484 610.81 130.483C608.579 129.904 593.986 128.642 596.982 128.954C597.768 129.038 604.544 129.389 612.391 130.794C610.251 130.42 611.846 130.726 611.468 130.66C606.949 129.773 595.633 128.769 591.603 128.669C590.691 128.629 590.753 128.648 590.603 128.642C586.943 128.512 588.446 128.509 584.681 128.481C578.067 128.272 597.106 128.814 595.764 128.862C594.942 128.409 566.177 128.198 556.044 129.463C553.845 129.646 552.519 129.773 552.542 129.778C552.396 129.787 551.816 129.831 550.624 129.935C547.976 130.099 536.273 131.53 534.291 131.966C533.953 132.024 534.094 132.041 533.675 132.113C532.768 132.216 522.078 134.2 516.146 136.568C515.177 136.927 514.35 137.235 513.647 137.497C514.493 137.187 515.303 136.89 516.15 136.58C518.031 135.89 519.949 135.279 521.881 134.736C519.607 135.38 517.714 136.016 516.154 136.592C506.093 140.303 508.655 139.37 513.406 137.631C513.681 137.529 513.951 137.432 514.216 137.334C514.842 137.105 515.495 136.865 516.165 136.62C519.934 135.219 524.028 134.203 524.098 134.186C524.222 134.173 520.507 135.045 516.174 136.645C508.438 139.486 498.305 143.258 501.727 141.957C502.469 141.662 515.434 136.898 509.008 139.24C507.883 139.644 499.575 142.742 499.143 142.912C496.205 143.97 514.358 137.206 512.125 138.011C507.726 139.662 502.058 141.73 497.029 143.655C494.741 144.533 494.191 144.773 493.907 144.883C489.708 146.532 492.056 145.591 490.656 146.145C489.892 146.411 481.715 149.896 483.242 149.195C456.953 162.002 475.591 151.958 492.384 145.489C487.084 147.531 476.87 151.955 472.478 154.313C471.113 155.02 471.622 154.77 470.1 155.586C469.849 155.721 469.543 155.886 469.165 156.088C463.641 159.008 437.371 173.119 431.007 177.536C435.017 174.997 433.829 175.706 430.736 177.676C427.663 179.675 430.256 178.024 429.659 178.416C429.18 178.721 420.454 184.389 416.422 188.777C415.182 190.071 414.211 191.139 413.776 191.618C414.787 190.504 415.676 189.551 416.419 188.774C421.189 184.217 420.474 184.833 416.398 188.754C415.465 189.725 414.347 190.927 413.099 192.311C414.163 191.121 415.235 189.946 416.324 188.798C411.866 193.421 403.049 203.819 400.511 206.583C400.12 207.024 401.544 205.457 401.323 205.705C399.195 208.215 391.48 216.331 391.063 216.657C390.761 216.982 394.12 213.582 392.886 214.854C392.63 215.119 389.397 218.412 386.046 221.48C384.801 222.618 385.563 221.947 385.25 222.233C382.598 224.578 384.209 223.251 379.201 227.354C375.969 229.908 373.4 231.844 369.09 234.528C368.425 234.937 367.746 235.351 366.999 235.798C367.759 235.343 368.441 234.929 369.091 234.53C379.798 227.409 375.251 230.593 369.104 234.551C366.789 235.98 364.255 237.475 362.201 238.615C360.915 239.256 362.145 238.941 354.315 242.607C370.735 234.294 349.818 245.44 344.793 245.982C344.534 246.044 344.449 246.082 342.13 246.613C341.932 246.651 342.223 246.631 340.054 247.055C337.697 247.498 335.768 247.743 334.206 247.919C322.176 249.155 332.144 248.133 328.664 248.464C326.994 248.658 316.916 249.414 314.19 249.466C313.562 249.488 313.853 249.472 311.429 249.544C307.143 249.663 303.293 249.637 300.462 249.528C300.135 249.494 300.112 249.569 294.749 249.162C293.238 249.033 291.545 248.849 293.686 249.082C300.795 249.932 314.298 249.653 322.295 249.02C329.601 248.603 306.564 249.973 305.341 249.661C304.9 249.663 309.413 249.657 304.83 249.644C300.915 249.619 293.731 249.409 287.931 248.357C287.744 248.324 286.816 248.154 285.835 247.935C284.488 247.64 283.007 247.278 283.13 247.304C283.209 247.324 284.472 247.619 285.841 247.907C287.775 248.325 289.963 248.627 289.357 248.532C289.27 248.52 287.345 248.221 285.845 247.89C285.043 247.717 284.363 247.564 284.16 247.515C283.45 247.351 281.553 246.794 280.615 246.51C278.207 245.769 279.766 246.28 278.22 245.755C274.626 245.065 264.736 237.922 264.615 237.492C266.123 238.796 267.687 240.031 269.339 241.17C260.514 234.424 264.387 237.164 263.134 236.214C261.898 235.067 262.223 235.401 259.605 232.759C259.55 232.701 259.394 232.542 259.157 232.296C256.972 230.129 248.466 220.806 248.693 220.974C254.378 227.366 252.304 225.021 252.548 225.317C253.533 226.4 254.873 227.817 256.254 229.279C257.527 230.626 258.435 231.572 259.143 232.309C261.965 235.182 260.364 233.59 259.125 232.326C258.3 231.479 257.648 230.803 258.449 231.643C258.635 231.838 258.865 232.077 259.116 232.335C259.943 233.193 260.982 234.206 261.249 234.464C262.403 235.583 262.414 235.614 263.194 236.328C265.063 237.999 262.899 236.021 263.058 236.155C264.604 237.77 271.674 242.959 267.265 239.746C269.881 241.708 270.251 241.876 272.488 243.207C277.065 245.669 270.137 242.078 268.532 240.706C264.306 237.601 262.394 235.723 259.089 232.361C257.641 230.856 255.992 229.132 253.817 226.788C251.238 224.019 248.248 220.64 247.132 219.311C246.339 218.544 239.956 210.171 239.811 209.889C237.456 206.546 234.48 200.708 233.391 196.592C232.369 192.926 232.696 194.095 232.594 193.753C232.435 193.229 231.53 188.754 231.247 187.251C230.955 185.772 231.023 186.169 230.714 184.654C230.657 184.375 230.584 183.992 230.512 183.547C229.685 176.28 230.403 176.456 230.326 175.721C230.857 171.397 231.437 170.271 231.486 169.901C231.588 169.539 231.429 169.976 231.724 169.062C231.945 168.382 233.416 163.909 236.828 159.478C240.137 155.007 245.255 150.907 249.071 148.534C250.803 147.432 252.284 146.692 253.159 146.276C251.752 146.946 250.394 147.702 249.077 148.545C248.576 148.866 248.087 149.189 247.611 149.515C248.09 149.194 248.585 148.872 249.084 148.556C251.811 146.811 254.526 145.682 254.59 145.691C255.21 145.141 262.857 142.926 265.259 142.88C266.19 142.777 266.115 142.768 267.283 142.68C271.878 142.043 282.109 143.79 284.406 144.797C289.449 146.661 285.624 144.837 279.975 143.575C274.318 142.196 266.837 142.535 265.782 142.739C267.925 142.404 275.193 142.343 280.316 143.61C285.433 144.805 288.514 146.104 283.171 144.297C281.497 143.781 278.476 143.198 277.507 143.068C270.942 142.256 276.114 142.852 275.596 142.782C274.723 142.622 270.373 142.416 269.222 142.498C268.84 142.566 271.302 142.222 265.001 142.776C266.536 142.54 271.782 142.136 276.852 142.926C281.927 143.609 286.679 145.406 287.734 145.88C288.259 146.117 286.151 145.127 289.416 146.612C290.805 147.316 293.279 148.421 297.248 150.861C297.101 150.764 296.955 150.668 296.807 150.573C304.087 154.764 310.143 161.79 312.319 170.054C312.071 169.169 310.529 164.657 312.377 170.365C313.24 173.706 312.631 171.227 312.714 171.534C313.175 172.734 315.135 183.31 313.409 195.615C307.402 212.696 289.07 224.09 284.432 227.604C284.168 227.785 283.859 227.995 283.513 228.228C280.099 230.633 272.89 234.714 272.244 234.979C268.377 237.419 253.24 242.876 250.111 243.475C248.195 244.008 250.023 243.525 248.311 243.994C246.719 244.425 248.363 243.958 247.89 244.086C247.512 244.188 246.895 244.354 246.084 244.571C238.562 246.861 213.335 252.633 206.654 252.918C211.179 252.763 233.058 248.135 232.565 248.042C232.48 248.072 227.185 249.304 226.094 249.536C224.283 249.934 218.07 251.243 214.645 251.764C214.257 251.81 215.781 251.604 209.669 252.469C207.56 252.758 202.03 253.462 196.42 253.705C194.977 253.779 192.447 253.89 189.237 253.889C174.489 254.414 145.19 252.281 142.937 250.785C142.845 250.803 148.759 252.011 144.759 251.214C139.469 250.014 144.202 251.16 138.103 249.494C137.951 249.449 137.369 249.279 136.499 249.004C132.08 247.738 120.645 243.23 120.236 242.971C115.333 240.969 129.457 246.816 129.308 246.614C128.765 246.54 116.997 241.741 116.569 241.431C116.121 241.233 125.603 245.412 114.236 240.326C115.529 240.937 116.824 241.531 118.125 242.11C112.776 239.731 112.314 239.397 111.035 238.787C107.087 236.83 102.812 234.69 96.781 231.002C95.1875 230.02 97.859 231.617 97.6562 231.488C95.7363 230.319 93.2773 228.871 90.4813 226.957C90.3054 226.777 96.7435 231.279 85.4712 223.422C86.228 223.982 87.0018 224.541 87.7696 225.084C87.0038 224.552 83.9356 222.4 80.9652 219.971C77.794 217.401 74.7307 214.565 74.0303 213.9C70.0876 210.112 73.514 213.426 69.6257 209.547C71.9668 212.179 60.6286 199.922 61.4037 200.521C59.9699 198.993 52.7421 189.909 48.6343 184.032C48.1577 183.366 47.7222 182.767 47.3054 182.192C44.8398 178.838 39.888 171.827 39.1565 170.727C38.2286 169.369 38.5378 169.781 36.8989 167.35C36.4288 166.664 31.5389 159.417 27.5331 152.904C26.744 151.632 25.1599 148.964 26.6157 151.304C29.0979 155.327 33.9276 162.816 33.9077 162.71C33.8302 162.597 27.3167 152.497 25.6589 149.7C17.9618 136.898 22.4479 144.253 22.2515 143.937C21.7448 143.075 17.6572 136.018 17.4999 135.702C16.8061 134.469 19.6934 139.489 19.7583 139.556C19.8093 139.636 15.9559 132.79 16.8453 134.338C18.0934 136.571 21.7128 142.842 21.9529 143.221C25.0208 148.339 20.8673 141.299 19.7694 139.328C19.4331 138.737 20.805 141.076 20.5229 140.587C16.2333 133.095 19.5441 139.043 16.7133 134.044C16.5418 133.738 16.397 133.479 16.2761 133.261C15.4186 131.715 15.7675 132.325 16.2936 133.252C16.7803 134.108 17.4125 135.214 17.37 135.137C17.3242 135.054 16.8771 134.264 16.3076 133.244C15.3445 131.526 14.1102 129.235 13.8228 128.679C13.7373 128.513 14.8866 130.66 16.339 133.226C18.5161 137.095 21.3635 141.9 21.1794 141.553C19.5536 138.788 17.9546 136.005 16.3824 133.202C15.4508 131.541 14.5633 129.921 13.6683 128.244C13.5536 127.985 15.2174 131.11 16.3892 133.198C16.8843 134.086 17.277 134.784 17.3881 134.978C17.9576 135.974 16.9124 134.108 16.4092 133.187C16.2463 132.89 16.1422 132.697 16.1661 132.735C16.1766 132.751 16.2784 132.93 16.4212 133.18C17.0072 134.208 18.2626 136.402 16.4864 133.228C16.4747 133.207 16.4628 133.185 16.4507 133.164C15.6801 131.768 14.0704 128.977 11.5698 124.016C14.6822 130.083 16.1152 132.489 16.4774 133.149C16.6271 133.41 16.6083 133.37 16.4851 133.145C16.0249 132.316 14.2752 129.093 14.1392 128.814C13.8798 128.309 18.3515 136.558 12.9658 126.524C12.7964 126.056 13.0852 126.742 14.6266 129.583C16.2292 132.495 13.3806 127.281 16.5822 133.09C17.2 134.195 18.0313 135.677 19.1763 137.676C19.014 137.368 17.8654 135.355 16.5982 133.081C14.8914 130.036 13.0519 126.529 12.8914 126.211C12.6436 125.735 13.865 128.031 13.4372 127.206C8.51017 117.477 11.9074 124.165 10.5145 121.318C10.3509 121.082 6.03576 111.743 9.34557 118.847C12.4766 125.402 14.9458 129.876 16.6993 133.025C18.3989 136.054 19.4221 137.796 20.0561 138.808C18.9754 136.923 17.8672 134.968 16.7614 132.99C12.4723 125.388 8.75574 117.601 7.73088 115.266C5.74306 110.779 7.81689 115.431 7.57633 114.868C7.47971 114.678 5.79957 110.786 5.79377 110.736C4.58579 108.102 12.7225 126.366 16.7636 132.989C16.9259 133.278 17.077 133.547 17.2159 133.793C17.067 133.525 16.9181 133.256 16.769 132.986C16.0158 131.622 15.2859 130.274 14.5677 128.92C15.2936 130.27 16.0311 131.614 16.7919 132.973C17.2669 133.821 17.7402 134.661 18.2124 135.492C17.6341 134.469 17.1668 133.634 16.7968 132.97C14.915 129.561 15.6034 130.807 16.8127 132.961C17.7293 134.588 18.9439 136.698 19.5346 137.681C19.8815 138.263 15.9598 131.461 20.4442 139.205C17.9833 134.929 17.9761 134.867 16.8787 132.924C16.5025 132.253 16.036 131.422 15.3014 130.081C15.3325 130.123 15.9419 131.236 16.8904 132.918C19.0215 136.725 22.8659 143.283 24.7866 146.422C17.9424 134.903 18.8514 136.305 16.9014 132.912C16.1386 131.543 14.9455 129.431 12.8429 125.351C11.4321 122.696 15.0033 129.535 14.728 128.982C13.6432 126.993 11.1735 122.324 8.4506 116.532C8.01618 115.587 9.79186 119.615 7.12646 113.672C6.82473 113.019 5.24434 109.176 5.28137 109.232C5.4888 109.73 7.09234 113.528 7.1745 113.666C7.23834 113.826 5.43807 109.596 5.44997 109.58C5.40745 109.44 6.93338 113.101 6.71965 112.565C6.22719 111.418 -0.0110734 96.1954 8.30351 116.007C1.29732 99.5716 7.15243 114.021 10.2744 120.235C11.0505 121.821 11.2605 122.225 12.4103 124.473C13.8904 127.365 15.7121 130.723 16.5286 132.18C17.2556 133.492 13.9768 127.508 16.9531 132.883C17.573 133.989 18.4544 135.558 19.7093 137.744C18.9065 136.334 17.9697 134.68 16.9634 132.877C13.285 126.358 9.0619 117.878 6.80922 112.496C1.09411 98.661 10.8887 122.111 12.4557 124.313C12.776 124.94 11.7236 122.826 11.937 123.243C12.1449 123.673 14.757 128.785 17.0439 132.832C18.4294 135.308 19.6324 137.392 19.904 137.852C20.6192 139.075 17.2849 133.27 17.085 132.853C16.8931 132.621 25.6799 147.671 20.9319 139.519C19.8434 137.643 18.4731 135.26 17.0947 132.803C14.322 127.897 11.7062 122.723 11.1488 121.5C13.0336 125.315 15.0237 129.064 17.1123 132.794C19.7101 137.432 22.3758 142.007 25.1213 146.545C22.43 142.057 19.8153 137.53 17.2693 132.947C22.5276 142.302 27.3218 150.261 32.8682 158.804C19.8176 138.069 37.1263 165.531 37.4879 165.711C37.5324 165.808 32.2801 157.75 31.4734 156.42C35.9281 163.715 50.9797 184.862 42.2675 172.426C43.8124 174.687 47.7523 180.103 47.7041 180.023C47.1693 179.328 38.8249 167.448 40.2132 169.361C41.7988 171.624 43.955 174.781 46.4425 178.231C47.7673 180.071 48.9454 181.674 49.9614 183.081C58.8117 194.879 56.8661 193.007 69.9215 207.361C69.626 207.047 69.3314 206.731 69.0389 206.415C73.1332 210.744 77.4753 214.834 82.0858 218.598C95.8099 229.544 111.634 237.893 128.059 244.187C130.247 245.002 133.373 246.124 137.046 247.278C147.78 250.944 163.844 251.837 172.855 251.93C175.287 252.009 187.258 252.058 188.163 252.055C189.839 252.064 180.634 252.057 184.793 252.076C185.049 252.078 186.822 252.081 189.237 252.082C195.348 252.188 205.419 251.203 204.388 251.263C202.142 251.542 195.084 252.002 193.927 251.992C187.041 253.263 231.372 248.085 245.59 242.728C248.015 242.079 249.621 241.628 250.045 241.506C248.716 241.873 247.381 242.227 246.043 242.578C249.851 241.562 253.632 240.509 257.335 239.247ZM84.1763 222.576C83.4143 222.014 82.2217 221.106 80.9118 220.037C78.9 218.402 76.6192 216.4 75.0449 214.954C71.399 211.705 65.6707 205.708 68.1899 208.238C72.1886 212.415 76.4268 216.374 80.9172 220.03C81.9793 220.895 83.0761 221.75 84.1763 222.576ZM181.758 253.943C176.984 253.906 180.686 253.881 184.599 253.907C185.041 253.909 188.218 253.975 181.758 253.943ZM132.104 247.605C132.289 247.682 136.224 248.989 136.367 249.022C136.407 249.035 136.445 249.048 136.481 249.059C137.313 249.325 137.13 249.272 136.478 249.069C134.639 248.521 129.138 246.583 132.104 247.605ZM303.776 155.851C307.517 159.768 304.976 156.75 302.406 154.58C302.248 154.438 303.528 155.598 303.776 155.851ZM306.399 158.668C309.276 161.826 312.55 169.735 309.719 163.593C309.529 162.948 306.36 158.446 306.399 158.668ZM164.71 253.573C165.251 253.595 170.188 253.786 172.296 253.819C172.232 253.84 166.783 253.688 164.71 253.573ZM285.185 227.061C285.22 227.032 284.577 227.482 283.498 228.206C279.782 230.877 270.395 236 269.512 236.31C271.474 235.477 279.997 230.715 283.504 228.214C284.523 227.528 285.15 227.088 285.185 227.061ZM313.563 193.908C313.548 194.045 313.477 194.725 313.37 195.61C313.097 197.779 311.689 200.219 311.77 200.125C312.397 198.916 313.183 197.229 313.387 195.612C313.587 193.903 313.674 192.852 313.563 193.908ZM259.105 143.95C258.947 143.993 259.969 143.737 259.729 143.814C259.512 143.948 257.902 144.059 253 146.263C251.552 146.891 256.708 144.613 256.21 144.883C255.11 145.282 254.254 145.648 253.573 145.957C258.125 143.802 263.32 142.983 263.806 142.929C266.133 142.544 259.217 143.765 259.105 143.95ZM230.13 177.213C230.044 178.004 230.087 182.193 230.661 184.665C230.803 185.376 230.908 185.922 230.972 186.253C231.018 186.499 230.784 185.434 231.333 188.271C231.783 190.557 231.127 187.132 232.023 191.592C233.01 196.104 231.659 190.075 231.765 190.477C231.786 191.007 233.549 197.971 233.577 197.739C233.375 197.609 231.595 190.127 231.322 188.287C230.86 185.923 231.401 188.795 230.632 184.859C230.62 184.796 230.608 184.736 230.596 184.678C230.186 182.378 230.468 183.704 230.38 183.173C230.337 182.955 230.032 180.575 230.064 178.696C230.08 176.81 230.239 175.448 230.129 177.227C230.129 177.222 230.13 177.217 230.13 177.213ZM252.352 146.542C252.691 146.372 253.082 146.181 253.573 145.957C253.155 146.148 252.755 146.341 252.352 146.542ZM95.674 230.338C97.788 231.656 91.4707 227.794 89.1868 226.156C89.1329 226.153 95.3094 230.161 95.674 230.338ZM248.349 148.897C243.557 152.234 245.293 150.901 249.011 148.44C249.998 147.81 251.131 147.155 252.352 146.542C250.712 147.393 250.503 147.542 249.024 148.462C248.823 148.591 248.599 148.734 248.349 148.897ZM226.094 249.536C226.395 249.472 226.586 249.435 226.612 249.437C225.821 249.603 225.747 249.614 226.094 249.536ZM242.569 245.468C248.175 243.947 236.77 246.992 236.839 246.967C236.879 246.971 242.342 245.535 242.569 245.468ZM298.352 151.593C298.764 151.953 291.854 147.169 301.85 154.177C296.647 150.224 302.178 154.336 302.063 154.325C302.044 153.863 292.769 148.047 290.534 147.2C288.852 146.356 296.93 150.453 298.341 151.586C298.345 151.588 298.348 151.591 298.352 151.593ZM274.113 244.258C272.74 243.665 268.696 241.204 266.265 239.174C267.404 240.106 271.217 242.888 274.113 244.258ZM754.389 120.449C748.591 121.433 744.116 121.641 741.1 121.712C735.177 121.804 734.978 121.786 741.099 121.68C743.255 121.628 746.133 121.503 749.804 121.08C750.207 121.077 755.68 120.245 754.389 120.449ZM582.403 161.676C581.312 163.334 584.754 157.727 587.832 154.705C588.491 153.994 591.096 151.528 588.181 154.402C588.194 154.227 583.938 158.961 582.403 161.676ZM244.962 151.322C243.211 152.563 238.308 157.085 236.347 160.029C237.473 158.169 242.424 153.068 244.962 151.322ZM684.235 122.175C681.991 122.278 680.487 122.405 680.872 122.382C682.6 122.281 686.788 122.075 684.235 122.175ZM264.415 142.903C264.677 142.667 256.111 144.717 255.6 145.158C257.304 144.3 264.177 142.792 264.415 142.903ZM268.972 241.175C267.819 240.443 273.734 244.323 275.803 245.023C275.571 245.098 269.618 241.813 268.972 241.175ZM648.627 127.307C646.683 127.772 641.868 129.171 641.356 129.36C640.685 129.545 647.734 127.501 648.627 127.307ZM819.919 20.2566C819.729 20.068 823.797 26.6406 826.442 28.7319C826.715 28.9814 826.935 29.1702 827.102 29.3109C827.712 29.8103 827.611 29.7344 827.095 29.3192C825.017 28.1118 819.863 20.5237 819.919 20.2566ZM705.485 121.703C711.833 121.713 704.785 121.704 705.063 121.733C709.331 121.707 719.965 121.751 712.656 121.701C711.231 121.692 707.476 121.695 705.485 121.703ZM699.632 121.737C698.95 121.751 694.381 121.849 698.332 121.789C700.163 121.763 703.103 121.705 699.632 121.737ZM844.935 35.5351C843.497 35.3016 844.052 35.4215 845.727 35.6211C846.573 35.7124 847.687 35.7941 848.987 35.7826C849.621 35.7774 850.325 35.7481 851.034 35.6894C851.386 35.6606 851.76 35.6225 852.116 35.5802C852.302 35.5582 852.491 35.5342 852.656 35.5136C852.756 35.5012 852.826 35.4925 852.907 35.4847C852.928 35.4805 853.008 35.4842 852.894 35.4793C852.876 35.4776 852.851 35.4749 852.815 35.4675C852.797 35.4637 852.776 35.4587 852.75 35.451C852.745 35.4457 852.651 35.437 852.487 35.3136C852.323 35.2107 852.127 34.8373 852.184 34.5656C852.227 34.2984 852.33 34.1983 852.38 34.1353C852.445 34.0663 852.442 34.0749 852.465 34.0547C852.531 34.0031 852.536 34.0059 852.53 34.0084C847.503 36.9756 840.628 35.6258 840.366 35.5346C839.989 35.4591 839.744 35.402 839.605 35.369C838.67 35.28 834.139 33.6569 833.674 33.3249C834.963 33.9965 838.702 35.2069 839.157 35.2553C839.347 35.3026 839.49 35.3362 839.587 35.3591C840.458 35.631 847.576 36.9463 852.519 33.988C852.524 33.9854 852.52 33.9864 852.496 34.0024C852.484 34.0107 852.467 34.0228 852.439 34.0457C852.426 34.0572 852.41 34.0716 852.39 34.0912C852.355 34.1453 852.154 34.2675 852.155 34.7241C852.163 34.9452 852.292 35.1731 852.414 35.2807C852.536 35.3946 852.634 35.4334 852.701 35.459C852.758 35.4793 852.781 35.4836 852.809 35.49C852.862 35.5006 852.891 35.5024 852.911 35.5038C852.95 35.5059 852.951 35.5044 852.948 35.5048C852.943 35.5044 852.861 35.5122 852.818 35.5172C852.701 35.5306 852.582 35.5459 852.449 35.5625C852.202 35.5933 851.95 35.6231 851.69 35.6502C851.197 35.7019 850.697 35.7407 850.23 35.765C849.283 35.8147 848.422 35.8107 847.676 35.7811C846.174 35.7197 845.172 35.5661 844.935 35.5351ZM815.237 5.76297C818.33 11.4734 818.806 12.5482 818.544 12.047C815.2 5.77234 817.412 9.8608 817.305 9.6572C817.079 9.20003 814.703 4.80641 815.247 5.78109C815.244 5.77505 815.241 5.769 815.237 5.76297ZM836.257 32.8165C836.447 33.0681 841.729 35.0338 841.998 34.9576C844.26 35.4594 841.449 34.9885 838.863 33.9838C836.275 32.9996 833.978 31.5827 836.257 32.8165ZM240.066 210.276C242.348 213.506 240.036 210.392 238.646 208.163C238.539 207.967 238.124 207.375 240.066 210.276ZM696.508 121.787C695.593 121.622 672.449 122.725 673.872 122.895C675.788 122.354 702.129 121.624 696.508 121.787ZM581.951 207.027C580.164 203.431 582.059 207.384 583.212 209.186C583.623 209.864 582.407 207.931 581.951 207.027ZM276.223 142.932C280.501 143.589 279.607 143.47 275.902 142.913C275.755 142.894 276.054 142.911 276.223 142.932ZM577.024 175.748C576.439 179.416 576.447 181.919 576.428 183.219C576.431 184.661 576.418 184.641 576.397 183.219C576.451 181.177 576.202 175.938 578.867 168.566C578.675 169.094 578.496 169.628 578.328 170.165C579.937 165.305 581.51 163.072 582.033 162.163C582.461 161.484 582.4 161.581 582.034 162.164C580.743 163.848 577.8 170.803 577.393 173.705C577.009 175.6 577.332 174.011 577.027 175.735C577.026 175.739 577.025 175.744 577.024 175.748ZM596.709 221.45C597.738 221.938 598.511 222.245 599.087 222.467C600.719 223.072 600.457 222.987 599.079 222.488C594.912 221.737 584.671 213.236 582.743 208.519C586.369 214.648 593.248 220.828 584.853 211.619C590.523 218.811 593.544 219.474 593.782 219.867C594.177 220.122 592.726 219.224 593.032 219.415C593.728 219.913 596.193 221.24 596.709 221.45ZM577.402 193.738C577.185 192.988 576.439 187.197 576.454 185.08C576.289 188.061 578.407 198.785 577.402 193.738ZM813.282 31.9662C813.173 32.1278 812.999 32.3845 812.668 32.8435C812.503 33.0705 812.299 33.3517 812.037 33.6594C811.797 33.9524 811.381 34.3343 811.202 34.3541C811.15 34.3655 811.035 34.3628 810.815 34.1711C810.606 33.9865 810.379 33.6686 810.187 33.2783C810.309 33.5197 810.482 33.8122 810.698 34.0443C810.917 34.2892 811.149 34.3721 811.2 34.3403C811.362 34.3349 811.868 33.8727 812.223 33.4057C812.601 32.9295 812.956 32.4146 813.282 31.9662ZM80.6783 219.697C78.1445 217.674 73.4151 213.288 74.8574 214.641C74.9814 214.826 80.6314 219.738 80.6783 219.697ZM630.695 133.021C630.299 133.142 624.196 135.623 620.597 137.026C618.236 137.925 616.988 138.372 619.277 137.541C619.505 137.458 619.984 137.28 620.603 137.043C624.666 135.43 635.277 131.258 630.695 133.021ZM720.746 121.71C719.266 121.702 713.243 121.684 713.119 121.69C712.705 121.703 720.104 121.721 720.746 121.71ZM68.7206 208.583C68.3716 208.325 61.7623 200.98 62.5055 201.775C63.79 203.388 69.7037 209.664 68.7206 208.583ZM249.004 221.486C249.532 222.089 250.251 222.929 250.447 223.149C250.832 223.713 261.175 234.639 257.209 230.492C256.45 229.955 241.934 213.683 240.651 211.091C239.962 210.209 245.566 217.671 247.115 219.335C247.378 219.641 247.528 219.795 249 221.481C249.001 221.482 249.003 221.484 249.004 221.486ZM810.247 15.9486C810.211 15.5067 811.717 8.21525 812.521 2.95057C812.572 2.56846 812.615 2.32985 812.699 2.04071C812.735 1.92384 812.778 1.81605 812.815 1.75251C812.846 1.69183 812.87 1.707 812.77 1.75859C812.661 1.81296 812.536 1.77585 812.562 1.78154C812.575 1.78583 812.642 1.82611 812.705 1.87969C812.86 2.01191 812.972 2.1393 813.114 2.31103C813.608 2.93319 813.868 3.39391 813.851 3.36447C813.452 2.7341 812.87 1.9491 812.563 1.79461C812.547 1.7859 812.56 1.80255 812.64 1.80174C812.719 1.80169 812.811 1.75679 812.837 1.73288C812.884 1.68313 812.802 1.77612 812.757 1.91278C812.714 2.02059 812.657 2.23498 812.627 2.38727C812.594 2.54875 812.563 2.73743 812.535 2.95238C811.91 7.39084 810.881 11.6281 810.247 15.9486ZM809.383 24.7906C809.25 28.5114 809.519 19.7918 810.044 17.2374C809.989 17.207 809.302 24.2453 809.383 24.7906ZM687.225 121.948C685.452 122.016 690.906 121.852 689.687 121.9C688.909 121.923 684.936 122.063 683.686 122.14C683.323 122.155 687.361 122 688.533 121.966C690.191 121.911 688.578 121.942 690.397 121.886C696.412 121.713 701.755 121.683 707.405 121.669C707.915 121.668 703.958 121.663 708.311 121.653C708.981 121.652 713.026 121.671 718.234 121.691C726.297 121.67 732.864 121.774 741.098 121.617C744.647 121.535 748.492 121.263 752.855 120.594C752.38 120.77 743.235 121.675 741.097 121.591C740.894 121.595 740.755 121.598 740.698 121.599C728.455 121.842 706.607 121.415 693.84 121.757C690.568 121.833 692.154 121.81 690.748 121.848C689.638 121.883 690.953 121.807 687.225 121.948ZM82.0267 220.768C81.7865 220.571 81.4279 220.281 81.0001 219.929C79.2281 218.487 76.1753 215.849 74.1594 213.943C74.9177 214.697 78.3468 217.801 80.994 219.936C81.3517 220.228 81.7002 220.508 82.0267 220.768ZM809.851 84.5096C809.092 86.08 806.203 90.6628 805.897 91.0027C805.672 91.537 809.795 84.8977 809.851 84.5096ZM324.898 248.837C325.066 248.829 329.205 248.463 329.361 248.442C333.062 248.133 320.643 249.22 324.898 248.837ZM407.485 198.782C409.544 196.405 411.627 194.027 412.348 193.256C411.007 194.739 407.254 199.069 407.485 198.782ZM525.513 133.827C524.861 133.876 534.073 131.985 535.851 131.802C535.185 131.84 525.955 133.644 525.513 133.827ZM813.77 31.4558C812.324 33.4718 811.527 34.418 811.216 34.422C810.978 34.474 810.294 34.138 809.74 32.3393C809.659 32.08 809.57 31.512 809.628 31.7128C809.661 31.8115 809.712 32.1108 809.92 32.6938C810.026 32.9803 810.177 33.3465 810.421 33.7209C810.642 34.0975 811.1 34.4491 811.206 34.3742C811.211 34.3733 811.216 34.3722 811.222 34.3708C811.356 34.3242 811.262 34.368 811.208 34.3838C811.168 34.3939 811.13 34.4002 811.211 34.3959C811.291 34.4823 812.079 33.8766 813.77 31.4558ZM579.998 165.868C580.313 165.168 581.036 163.693 582.004 162.146C582.857 160.771 583.85 159.357 584.73 158.223C584.495 158.534 583.173 160.272 582.015 162.152C581.141 163.546 580.387 165.026 579.998 165.868ZM57.04 195.115C55.3012 193.015 47.8564 182.891 49.6866 185.404C49.9145 185.786 55.8999 193.762 57.04 195.115ZM234.897 162.338C232.204 166.885 237.775 157.419 240.562 155.267C239.324 156.233 234.942 161.938 234.897 162.338ZM494.616 144.655C494.839 144.561 499.951 142.617 500.179 142.538C504.373 140.962 489.925 146.468 494.616 144.655ZM384.985 222.491C386.545 221.253 395.756 212.059 397.653 209.855C395.935 212.082 383.292 224.274 384.985 222.491ZM823.304 47.1089C823.935 42.9044 823.542 38.8033 822.445 35.0671C822.577 35.4521 823.386 38.2916 823.553 41.1784C823.778 44.0595 823.348 46.8977 823.304 47.1089ZM513.406 137.631C513.681 137.529 513.951 137.432 514.216 137.334C513.939 137.436 513.668 137.535 513.406 137.631ZM768.707 116.614C765.403 117.737 766.086 117.498 766.296 117.443C768.803 116.665 772.41 115.264 768.707 116.614ZM78.9812 218.212C78.0601 217.434 73.6808 213.552 71.318 211.157C71.974 211.881 76.8811 216.494 78.9812 218.212ZM610.45 225.442C613.605 225.928 604.878 224.836 599.062 222.534C597.005 221.771 595.329 220.88 594.513 220.408C594.427 220.342 596.361 221.513 599.07 222.512C603.555 224.263 610.064 225.402 610.45 225.442ZM246.096 150.618C246.234 150.525 247.681 149.479 249.1 148.58C250.651 147.584 252.146 146.828 251.398 147.213C251.042 147.402 250.084 147.93 249.09 148.565C247.561 149.529 245.988 150.687 246.096 150.618ZM587.676 215.1C586.491 213.982 584.226 210.936 585.043 211.993C586.059 213.374 587.962 215.407 587.676 215.1ZM662.095 124.365C661.363 124.416 651.825 126.357 655.779 125.573C658.507 125.032 658.937 124.945 659.588 124.822C660.304 124.59 675.734 122.37 662.095 124.365ZM668.226 173.424C669.531 176.808 670.573 181.099 670.981 184.878C671.004 183.302 668.962 174.811 668.226 173.424ZM230.521 174.4C230.49 173.942 231.808 167.51 234.227 163.568C236.592 159.652 238.142 157.458 234.306 163.395C234.087 163.745 232.342 166.942 231.476 170.007C230.557 173.05 230.349 175.788 230.521 174.4ZM813.77 31.4558C814.012 31.1427 814.285 30.8027 814.627 30.4498C814.941 30.128 815.302 29.8084 815.73 29.5092C815.303 29.8077 814.943 30.1274 814.628 30.4502C814.287 30.8018 814.013 31.1418 813.77 31.4558ZM808.671 86.5499C809.369 85.3946 805.873 91.2241 804.539 92.7523C804.279 93.3245 808.693 86.7746 808.671 86.5499ZM671.03 185.163C671.253 187.015 671.398 190.186 671.268 192.755C671.251 193.152 671.199 193.56 671.134 193.945C671.146 193.845 671.233 193.378 671.261 192.755C671.417 190.468 671.144 185.882 671.03 185.163ZM542.741 130.799C547.11 130.271 552.511 129.798 552.59 129.776C552.681 129.771 552.896 129.754 553.249 129.726C553.421 129.712 554.62 129.608 556.047 129.492C557.57 129.368 559.295 129.242 560.362 129.173C564.134 128.944 561.074 129.108 556.048 129.509C544.779 130.271 523.914 133.277 547.587 130.234C545.969 130.409 544.353 130.596 542.741 130.799ZM371.034 233.262C370.542 233.578 369.844 234.023 369.071 234.498C366.522 236.08 363.213 237.99 364.429 237.296C365.001 236.972 367.287 235.629 369.082 234.516C370.811 233.447 372.071 232.588 371.034 233.262ZM443.067 170.238C442.4 170.597 436.525 174.049 436.378 174.17C439.748 172.135 446.029 168.574 443.067 170.238ZM354.086 242.598C352.64 243.242 350.754 244.001 350.931 243.932C352.454 243.396 356.524 241.521 354.086 242.598ZM822.353 35.1092C823.315 37.3627 823.788 45.0441 823.306 46.6922C823.256 46.9954 823.157 47.8338 822.799 49.3231C822.8 49.3186 822.801 49.3141 822.802 49.3096C822.742 49.5399 822.509 50.5881 821.958 52.1188C819.266 63.6819 801.87 103.165 815.973 70.1457C816.396 68.9444 815.833 70.5908 817.505 65.6975C817.612 65.3776 817.683 65.216 818.013 64.2178C818.548 62.6909 820.409 56.5818 821.986 52.1289C822.807 49.869 823.146 47.8734 823.268 47.0112C823.273 46.9889 823.303 46.8201 823.351 46.4588C823.6 44.8451 823.685 41.4797 823.219 38.8228C822.795 36.1569 822.065 34.2231 822.353 35.1092ZM454.925 163.655C453.704 164.309 449.898 166.403 449.502 166.639C451.393 165.592 457.736 162.142 454.925 163.655ZM230.692 173.643C230.943 170.73 233.881 164.03 233.002 166.055C232.706 166.656 231.632 169.277 231.131 171.458C230.607 173.626 230.445 175.282 230.692 173.643ZM418.252 186.923C430.632 176.906 421.164 184.492 423.048 182.941C421.388 184.203 419.771 185.52 418.252 186.923ZM823.379 20.1986C822.016 17.9943 823.595 20.5928 825.251 22.9351C825.769 23.6714 824.141 21.4312 823.379 20.1986ZM807.06 27.6912C807.372 25.5256 806.003 36.1216 806.515 31.9906C806.547 31.7945 807.045 27.8488 807.06 27.6912ZM852.486 34.1838C852.522 34.1641 852.557 34.1445 852.593 34.1248C852.604 34.1207 852.603 34.1097 852.521 34.1795C852.505 34.1971 852.52 34.1716 852.444 34.264C852.393 34.3353 852.255 34.5319 852.33 34.8469C852.418 35.1607 852.646 35.2699 852.73 35.3049C852.806 35.3337 852.797 35.3276 852.823 35.3352C852.899 35.3523 852.923 35.35 852.936 35.3512C852.958 35.3515 852.911 35.3538 852.863 35.3597C852.789 35.3684 852.662 35.3853 852.581 35.3965C852.376 35.4243 852.176 35.4511 851.96 35.4772C851.519 35.5303 851.073 35.576 850.499 35.614C849.36 35.6792 847.823 35.7525 845.378 35.4624C849.066 35.8245 849.239 35.6116 849.364 35.6476C849.425 35.6431 849.499 35.6429 849.989 35.6213C850.237 35.6094 850.595 35.5913 851.113 35.5474C851.376 35.5249 851.68 35.4951 852.016 35.4562C852.201 35.4349 852.37 35.4139 852.571 35.3887C852.651 35.3789 852.778 35.363 852.851 35.3555C852.904 35.3497 852.948 35.3472 852.942 35.3476C852.934 35.3471 852.916 35.3493 852.854 35.3385C852.838 35.3355 852.819 35.3314 852.795 35.3244C852.788 35.3163 852.709 35.3231 852.535 35.1791C852.346 35.0527 852.255 34.6008 852.355 34.4322C852.424 34.2563 852.521 34.1875 852.51 34.1942C852.605 34.1081 852.605 34.1232 852.593 34.1263C852.558 34.1454 852.522 34.1646 852.486 34.1838ZM552.542 129.778C552.57 129.777 552.594 129.775 552.59 129.776C552.558 129.778 552.545 129.779 552.542 129.778ZM339.502 247.1C338.264 247.323 335.635 247.697 334.198 247.849C333.315 247.949 332.889 247.998 333.531 247.936C333.565 247.933 333.817 247.906 334.199 247.864C335.631 247.728 338.858 247.244 339.502 247.1ZM823.306 46.6922C823.344 46.422 823.331 46.559 823.268 47.0112C823.262 47.0321 823.278 46.9145 823.306 46.6922ZM367.551 235.398C367.506 235.43 368.132 235.057 369.064 234.486C371.214 233.202 374.728 230.739 374.914 230.586C378.356 228.019 372.755 232.268 369.058 234.477C368.475 234.837 367.969 235.145 367.551 235.398ZM273.851 142.841C274.302 142.868 271.405 142.612 269.622 142.678C268.242 142.704 272.172 142.661 273.851 142.841ZM836.83 34.7537C834.277 33.956 830.957 32.1668 830.382 31.77C831.869 32.8019 836.857 34.8445 836.83 34.7537ZM807.561 23.5322C807.927 20.3399 808.606 13.0134 809.551 8.32705C809.379 8.28063 807.849 20.5229 807.561 23.5322ZM817.991 28.6784C818.035 28.6797 818.262 28.6469 818.646 28.7244C819.022 28.7923 819.583 29.0784 819.909 29.5812C821.156 31.3591 822.177 34.5123 821.97 33.8666C821.745 33.1592 820.923 31.0138 819.924 29.5709C819.309 28.6281 818.179 28.6219 817.838 28.6837C817.443 28.7517 817.41 28.7406 817.991 28.6784ZM260.466 143.819C257.454 144.584 264.4 142.807 267.698 142.772C269.369 142.531 260.938 143.469 260.466 143.819ZM321.893 248.963C317.866 249.263 327.851 248.556 329.237 248.36C327.387 248.543 323.325 248.865 321.893 248.963ZM433.323 175.958C422.663 182.759 428.506 179.119 430.371 177.868C430.636 177.685 433.58 175.793 433.323 175.958ZM38.5665 169.548C37.5392 168.068 41.3223 173.616 41.8446 174.307C42.1528 174.736 39.2184 170.508 38.5665 169.548ZM613.943 131.091C613.433 130.988 612.888 130.884 612.391 130.794C612.763 130.861 613.291 130.959 613.943 131.091ZM285.284 247.631C285.485 247.676 285.681 247.72 285.872 247.763C294.102 249.337 293.271 248.825 294.02 248.98C295.7 249.154 299.62 249.432 302.791 249.483C299.155 249.411 295.518 249.217 291.889 248.796C294.747 249.757 319.712 249.442 320.211 249.086C320.958 249.045 313.129 249.462 312.896 249.436C312.568 249.445 311.341 249.436 310.613 249.45C309.487 249.681 290.481 249.285 285.873 247.759C285.639 247.709 285.442 247.666 285.284 247.631ZM412.909 192.441C414.28 190.929 414.691 190.52 415.326 189.832C415.546 189.595 415.572 189.536 416.319 188.747C415.166 189.954 414.035 191.187 412.909 192.441ZM270.247 241.801C269.189 241.07 271.011 242.377 273.317 243.603C275.612 244.859 278.434 245.854 278.607 245.906C280.426 246.706 271.842 243.259 270.247 241.801ZM363.833 237.573C363.506 237.845 355.749 241.905 355.771 241.808C357.959 240.968 368.104 235.145 363.833 237.573ZM417.26 187.796C419.375 185.64 423.983 182.215 423.45 182.594C423.447 182.597 423.443 182.6 423.439 182.602C421.274 184.223 419.172 185.931 417.26 187.796ZM250.631 147.783C255.671 145.256 253.338 146.145 249.145 148.651C249.045 148.714 248.945 148.778 248.845 148.842C248.115 149.33 248.513 149.072 249.154 148.666C249.645 148.355 250.274 147.982 250.631 147.783ZM268.214 142.814C269.01 142.753 273.548 142.668 277.507 143.348C281.468 143.959 284.784 145.113 283.59 144.713C282.782 144.203 273.437 142.635 272.97 142.837C272.307 142.82 275.337 142.865 270.278 142.731C270.575 142.721 267.666 142.82 268.214 142.814ZM254.927 145.707C260.297 143.708 261.608 143.571 257.457 144.738C255.851 145.259 254.172 146.022 254.927 145.707ZM236.724 159.934C237.897 158.216 241.618 154.174 244.633 151.888C240.674 154.998 237.142 158.757 234.595 163.152C234.306 163.665 235.623 161.365 236.732 159.922C236.73 159.926 236.727 159.93 236.724 159.934ZM799.97 56.0489C801.162 54.1294 800.325 55.3085 799.366 57.2398C798.433 59.1742 797.796 61.8349 797.74 62.0412C797.393 63.3242 798.729 57.7924 799.97 56.0489ZM20.3524 139.659C19.7339 138.578 19.3462 137.871 17.977 135.486C19.3268 137.899 20.6901 140.286 22.0755 142.665C23.2001 144.492 21.0226 140.839 20.3524 139.659ZM15.2903 130.421C15.4758 130.75 14.5443 128.969 16.7418 133.001C16.7947 133.097 16.8495 133.197 16.9061 133.299C17.2423 133.91 17.1309 133.723 16.726 133.01C15.0811 130.275 9.48199 119.397 8.47142 116.935C9.98807 120.289 13.6562 127.511 15.2903 130.421ZM2.28675 100.872C2.19508 100.685 4.58762 107.255 4.92569 108.004C6.45952 111.964 2.55402 102.004 2.28675 100.872ZM10.9109 121.473C9.47324 118.525 12.6846 125.046 13.7231 126.962C13.7935 127.153 11.1179 121.942 10.9109 121.473ZM809.916 12.2462C810.464 8.73493 811.05 5.6249 810.075 10.9892C810.033 11.2528 809.891 12.3983 809.916 12.2462ZM4.69538 107.28C5.8839 110.347 3.21859 103.579 2.55459 101.504C2.47792 101.318 4.48876 106.825 4.69538 107.28ZM810.399 9.7927C811.363 5.19968 811.026 6.88951 810.832 7.38304C810.122 9.7005 809.23 18.0072 809.05 19.6993C810.509 7.31259 810.082 11.9983 810.399 9.7927ZM818.431 20.0178C820.533 23.8981 815.225 13.944 814.621 11.8572C815.383 13.9135 817.769 18.944 818.431 20.0178ZM838.711 36.4128C840.991 37.3165 848.224 37.2243 849.342 36.5565C846.798 37.6086 839.636 36.8607 838.711 36.4128ZM844.075 37.2058C845.958 37.2534 847.122 37.0367 847.272 37.013C847.423 36.9616 846.571 37.1737 844.401 37.1891C844.233 37.1892 843.937 37.2014 844.075 37.2058ZM841.763 33.5711C839.477 32.9098 836.952 31.9017 840.563 33.2491C841.654 33.5978 842.008 33.6355 841.763 33.5711ZM811.929 5.6402C812.14 5.90374 812.269 6.15832 812.454 6.56331C812.589 6.86609 812.724 7.21404 812.859 7.59825C813.608 9.69284 814.09 10.955 812.891 7.5872C812.701 7.05486 812.529 6.56736 812.208 5.98856C812.48 6.47006 812.674 6.95838 812.897 7.58502C813.56 9.4703 814.272 11.3475 815.052 13.1977C814.012 10.687 813.376 8.88107 812.914 7.57902C812.748 7.10639 812.619 6.7897 812.487 6.50003C812.32 6.14094 812.226 5.97004 812.07 5.74402C811.996 5.64052 811.934 5.57184 811.887 5.52789C811.831 5.47459 811.776 5.44906 811.776 5.45239C811.796 5.4609 811.811 5.43534 811.731 5.51492C811.422 5.8907 811.22 6.52123 810.982 7.40792C810.148 11.134 810.273 10.8887 810.358 10.111C809.742 13.1967 808.475 26.7104 807.358 34.4795C808.393 27.6558 809.345 16.5068 810.48 9.84904C810.647 8.91272 810.823 8.00415 811.066 7.11887C811.119 6.92929 811.191 6.68927 811.26 6.49068C811.329 6.29152 811.394 6.12147 811.487 5.92688C811.57 5.75681 811.662 5.60594 811.748 5.51934C811.783 5.48213 811.814 5.46738 811.806 5.47138C811.798 5.47657 811.762 5.47188 811.772 5.47337C811.846 5.5028 811.988 5.66479 812.086 5.81866C812.182 5.96912 812.216 6.03827 812.251 6.10379C812.314 6.22675 812.295 6.19549 812.244 6.10522C812.163 5.93939 811.871 5.55758 811.923 5.63314C811.925 5.63546 811.927 5.63782 811.929 5.6402ZM822.29 16.1547C818.859 9.9461 820.94 13.9282 822.98 17.3708C823.067 17.5178 822.377 16.3105 822.29 16.1547ZM1.6879 98.3665C4.90218 107.283 1.88724 101.072 10.0423 119.138C6.49642 111.615 9.81259 118.733 9.11911 117.271C8.54379 116.101 6.58206 111.614 7.70967 114.228C5.9759 110.886 0.649973 95.6061 0.448939 94.8714C0.451214 94.8777 0.45349 94.884 0.455768 94.8904C0.306499 94.4755 0.748407 95.4942 1.6879 98.3665ZM838.708 36.568C841.052 37.1067 842.014 37.4973 846.799 37.2074C849.97 36.5502 845.546 37.9668 840.072 36.8462C834.571 35.8815 828.814 32.3543 827.705 31.4472C843.155 39.4891 830.295 33.8057 826.258 30.3235C824.756 29.0115 824.214 28.5168 826.235 30.351C826.771 30.8039 827.498 31.3634 828.481 32.0172C827.604 31.4382 826.856 30.8853 826.228 30.3601C822.257 26.7355 822.244 26.0049 822.481 26.4773C822.785 26.8895 823.815 28.0946 823.114 27.2928C821.311 25.5578 817.189 18.2866 817.451 18.6341C817.453 18.6381 817.455 18.6422 817.457 18.6463C819.707 22.9599 822.385 27.1802 826.194 30.4011C826.349 30.5302 826.53 30.6756 826.693 30.8021C826.5 30.6487 826.325 30.5034 826.199 30.3949C825.425 29.7131 825.568 29.8279 826.216 30.3749C827.657 31.7017 832.312 34.4137 834.528 35.2373C835.888 35.7747 837.282 36.2256 838.708 36.568ZM817.424 18.3937C817.395 18.9809 823.55 28.2228 823.373 27.4722C821.823 26.6971 814.508 12.7708 817.424 18.3937ZM806.858 37.9695C807.52 34.0716 808.248 28.0024 808.469 25.8652C808.035 29.7898 807.216 35.8366 806.858 37.9695ZM821.777 37.5952C822.21 40.0253 821.901 37.4632 821.1 34.9531C820.327 32.4223 818.945 30.1163 819.952 32.0511C820.183 32.1872 821.855 37.3184 821.777 37.5952ZM850.276 36.4329C852.77 35.5831 853.314 35.0772 852.92 35.3136C852.517 35.5094 851.078 36.2349 849.189 36.715C848.972 36.7759 850.046 36.5169 850.276 36.4329ZM4.249 105.605C4.25966 105.966 9.64285 118.614 10.8418 120.744C10.0646 119.572 3.9396 105.304 4.249 105.605ZM805.519 44.8205C807.53 37.1506 808.41 26.4898 808.594 25.3454C808.726 24.1943 808.547 26.0029 808.577 25.7406C808.65 25.1392 810.021 12.8524 810.172 12.2829C810.231 11.8624 809.879 14.0486 810.229 11.5503C809.5 16.4205 807.079 38.9446 806.533 40.0765C806.32 40.9567 807.829 34.2282 805.522 44.8075C805.521 44.8118 805.52 44.8161 805.519 44.8205ZM808.929 22.4447C808.572 25.5208 809.519 16.8998 809.801 14.8354C810.384 10.2115 808.947 22.0464 808.929 22.4447ZM812.735 7.42302C812.752 7.46936 812.775 7.53397 812.804 7.61765C813.245 9.18528 816.386 16.7524 816.819 17.359C815.403 14.5373 813.373 9.28898 812.812 7.61466C812.586 6.99159 812.532 6.87512 812.735 7.42302ZM819.709 11.2343C818.621 9.18229 815.668 3.54822 815.381 3.23667C816.634 5.27288 819.5 10.9233 819.709 11.2343ZM25.7477 147.246C23.7652 143.955 28.3832 151.56 29.7868 153.757C29.8407 153.887 25.9075 147.539 25.7477 147.246ZM851.17 36.2716C851.364 36.1944 852.134 35.9184 853.24 35.3232C853.279 35.3021 853.316 35.2817 853.369 35.2438C853.396 35.2238 853.427 35.2011 853.472 35.1555C853.51 35.1145 853.564 35.0599 853.618 34.9375C853.672 34.8228 853.705 34.5835 853.607 34.3848C853.511 34.1868 853.369 34.1022 853.287 34.061C853.179 34.0134 853.196 34.0258 853.169 34.0163C852.906 33.9606 852.879 33.9955 852.829 33.9916C852.72 33.9999 852.646 34.0094 852.559 34.0197C852.391 34.0402 852.219 34.0626 852.059 34.0819C851.713 34.124 851.364 34.1618 850.975 34.1948C850.217 34.2593 849.37 34.2977 848.464 34.2879C846.652 34.2707 844.587 34.051 842.501 33.5385C838.303 32.556 834.164 30.2114 831.305 27.7423C828.761 25.5472 827.211 23.2951 826.592 22.4856C827.2 23.2876 828.749 25.5489 831.296 27.7523C834.204 30.2714 838.429 32.6418 842.675 33.6036C844.775 34.1049 846.846 34.3078 848.632 34.3133C849.527 34.3173 850.35 34.275 851.083 34.2097C851.465 34.1756 851.784 34.1398 852.122 34.0983C852.278 34.0791 852.426 34.0596 852.597 34.0391C852.67 34.0305 852.758 34.0199 852.852 34.0138C852.874 34.0127 852.898 34.0104 852.957 34.0108C852.984 34.0113 853.014 34.0123 853.055 34.0174C853.076 34.02 853.1 34.0237 853.129 34.0304C853.144 34.0338 853.16 34.038 853.178 34.0435C853.186 34.0472 853.236 34.0564 853.329 34.1112C853.415 34.1618 853.551 34.2752 853.614 34.4667C853.679 34.6577 853.635 34.8483 853.588 34.9461C853.54 35.0493 853.493 35.0991 853.458 35.1365C853.443 35.1518 853.437 35.1571 853.428 35.1659C853.393 35.1976 853.367 35.2167 853.344 35.2329C853.298 35.2644 853.264 35.2834 853.229 35.3025C852.348 35.7776 851.752 36.0125 851.595 36.0807C851.245 36.2266 850.998 36.3349 851.17 36.2716ZM810.701 9.6055C810.283 12.1076 810.068 13.7913 810.022 14.0906C809.602 17.251 808.902 23.7681 809.035 22.3394C809.511 16.728 811.519 4.62639 810.701 9.6055ZM818.866 9.42782C814.417 1.02255 822.937 17.1693 821.878 15.0091C821.785 14.883 819.314 10.3061 818.866 9.42782ZM848.044 37.1476C846.78 38.0946 833.742 37.2266 826.118 30.4918C821.875 26.8685 819.61 22.6368 818.764 21.2667C820.746 24.4972 822.405 27.2294 826.127 30.4815C826.393 30.7036 826.682 30.9302 826.988 31.1592C828.193 32.0348 827.89 31.7791 828.021 31.8749C830.18 33.2729 828.548 32.2535 829.908 33.0788C830.313 33.3327 835.12 36.1086 840.073 37.0003C845.014 38.0716 849.571 36.7859 848.044 37.1476ZM810.476 11.0384C810.123 12.5421 808.273 29.9444 808.119 30.6437C807.532 35.8758 810.121 12.3354 810.476 11.0384ZM850.634 36.5037C847.649 38.7159 833.322 35.9691 843.064 37.4299C843.983 37.553 848.035 37.5195 850.634 36.5037ZM819.372 10.3076C819.153 9.91124 814.617 1.0973 813.978 1.02962C815.438 2.18609 821.759 15.0412 819.372 10.3076ZM821.853 14.7886C821.743 14.5796 822.828 16.6184 820.603 12.5656C820.419 12.225 820.097 11.5898 817.364 6.42164C816.804 5.36234 815.881 3.76002 815.939 3.87204C818.713 9.40257 827.848 25.0734 821.853 14.7886ZM810.448 11.3586C810.604 10.4262 810.279 12.6826 810.015 14.695C809.902 15.5732 810.061 13.9357 810.448 11.3586ZM808.164 20.2008C808.67 15.6279 807.305 25.9978 808.018 31.087C808.155 32.5373 808.603 33.516 808.689 33.713C808.625 33.5539 808.164 32.5583 808.029 31.086C807.567 27.3056 808.077 20.6153 808.164 20.2008ZM30.6233 154.813C30.6209 154.809 30.6185 154.805 30.6161 154.802C33.2103 158.885 31.5864 156.364 31.7086 156.559C37.2754 165.222 35.8677 162.897 36.7414 164.232C38.6739 167.092 38.3134 166.675 41.6403 171.461C36.1597 163.536 41.1303 170.766 41.2763 170.993C41.8087 171.942 34.0687 160.375 31.528 156.304C31.1614 155.742 33.8169 159.907 32.8849 158.472C29.8022 153.818 20.8644 139.032 30.6233 154.813ZM809.824 16.2583C809.588 18.4778 807.597 35.4545 808.102 30.951C808.239 30.2171 810.151 12.9878 809.824 16.2583ZM553.956 128.171C558.045 127.808 548.563 128.589 546.81 128.817C545.943 128.904 552.158 128.315 553.956 128.171ZM489.645 144.875C485.108 146.689 480.414 148.805 486.004 146.425C486.602 146.169 490.162 144.674 489.645 144.875ZM589.721 219.03C593.926 222.117 593.762 221.808 590.589 219.666C589.507 218.854 589.597 218.925 589.721 219.03ZM613.091 129.402C612.6 129.265 606.747 128.382 606.955 128.451C609.13 128.671 616.368 130.031 613.091 129.402ZM588.445 217.975C590.836 219.945 586.622 216.635 584.321 213.622C585.468 215.163 588.175 217.797 588.445 217.975ZM845.471 33.9437C842.998 33.8701 836.317 31.619 833.184 29.0498C833.011 28.8944 835.126 30.5374 837.897 31.7884C840.654 33.0984 844.054 33.8001 845.471 33.9437ZM508.998 137.568C504.68 139.179 513.953 135.775 513.092 136.068C512.973 136.11 509.171 137.503 508.998 137.568ZM672.638 121.357C669.28 121.692 679.947 120.722 677.008 120.966C676.849 120.966 672.837 121.321 672.638 121.357ZM719.154 120.083C716.611 120.059 705.762 120.052 709.986 120.07C710.638 120.067 718.967 120.094 719.154 120.083ZM36.9156 164.461C36.1757 163.326 40.6007 169.895 41.2628 170.827C41.5079 171.199 37.8681 165.971 36.9156 164.461ZM621.465 228.074C624.119 228.227 631.006 227.923 632.207 227.733C628.975 228.156 620.59 228.079 621.465 228.074ZM529.185 131.375C525.201 132.078 518.555 134.051 520.212 133.61C527.586 131.61 519.247 133.617 529.185 131.375ZM578.646 203.873C579.456 205.866 580.266 207.308 580.152 207.092C579.086 205.017 577.879 201.88 578.646 203.873ZM659.775 156.525C659.768 156.363 655.008 151.444 655.614 152.129C655.872 152.296 659.874 156.569 659.775 156.525ZM814.422 33.2009C814.944 32.4932 814.861 32.613 814.439 33.1973C814.225 33.4921 813.933 33.9126 813.538 34.414C813.102 34.8862 812.765 35.5913 811.527 35.9592C810.593 36.1448 809.861 35.5786 809.467 35.138C809.047 34.6677 808.781 34.1705 808.569 33.6867C808.154 32.718 807.99 31.7936 807.926 31.0957C807.914 30.9563 807.903 30.8272 807.893 30.7098C807.876 30.4357 807.892 30.6196 807.938 31.0945C807.992 31.6426 808.127 32.5462 808.53 33.5381C808.735 34.0332 808.999 34.5556 809.42 35.0508C809.815 35.5136 810.549 36.1274 811.523 35.9385C812.998 35.451 813.29 34.6044 813.746 34.1188C814.139 33.5994 814.377 33.2602 814.422 33.2009ZM590.728 149.726C590.779 149.314 583.283 157.029 586.226 153.982C586.895 153.155 590.612 149.755 590.728 149.726ZM686.871 120.355C679.771 120.516 709.591 119.917 701.755 120.047C701.197 120.012 687.49 120.274 686.871 120.355ZM735.521 120.067C734.31 120.066 734.913 120.014 739.965 119.963C740.625 119.956 737.53 120.026 738.069 120.021C738.174 120.02 739.431 120.008 741.06 119.972C744.426 119.939 749.461 119.423 749.779 119.362C750.32 119.295 749.681 119.349 750.229 119.279C750.851 119.246 757.477 118.236 760.878 117.293C767.264 115.586 767.885 115.124 768.407 114.987C769.89 114.461 772.393 113.541 775.307 112.21C782.712 108.906 791.465 103.289 798.75 96.647C805.913 90.1637 809.771 81.2934 812.259 75.4772C808.924 83.4347 804.986 91.0523 798.77 96.6691C796.747 98.472 794.686 100.216 792.492 101.895C795.292 100.082 778.71 111.309 788.447 104.805C785.505 108.529 754.988 121.502 741.06 119.992C738.225 120.055 736.239 120.062 735.535 120.067C735.53 120.067 735.526 120.067 735.521 120.067ZM472.026 152.727C473.081 152.184 471.57 152.921 469.318 154.122C465.875 155.96 460.639 158.775 459.956 159.165C461.168 158.514 466.161 155.836 469.328 154.141C470.82 153.341 471.921 152.782 472.026 152.727ZM538.989 129.619C540.406 129.437 541.746 129.132 549.206 128.414C549.213 128.413 549.22 128.413 549.227 128.412C551.413 128.211 548.923 128.46 549.324 128.427C549.47 128.405 556.279 127.824 550.626 128.334C542.012 129.192 549.811 128.362 545.218 128.842C544.654 128.862 535.981 130.029 536.492 130C536.54 129.989 539.15 129.607 539.58 129.557C541.212 129.35 540.419 129.472 540.649 129.442C541.303 129.307 551.949 128.148 555.917 127.888C556.48 127.844 556.906 127.813 557.153 127.797C557.255 127.791 556.789 127.827 555.918 127.899C551.256 128.158 535.102 130.1 534.379 130.376C533.828 130.464 534.053 130.383 533.479 130.475C533.174 130.452 524.198 132.303 523.065 132.704C522.729 132.791 522.474 132.859 522.287 132.909C523.614 132.491 515.651 134.923 515.915 134.918C516.034 134.813 521.499 133.073 521.708 133.065C521.795 133.041 521.87 133.021 521.941 133.002C520.726 132.948 539.706 129.282 535.61 130.091C541.144 129.255 534.828 130.227 538.989 129.619ZM565.701 127.178C565.115 127.213 564.555 127.248 563.979 127.285C573.721 126.722 585.031 126.546 596.272 127.282C599.139 127.484 595.847 127.209 599.59 127.509C602.593 127.757 605.87 128.181 604.261 128C603.86 127.934 597.783 127.335 594.717 127.19C585.688 126.754 587.973 126.959 587.442 126.918C586.87 126.892 581.182 126.784 578.082 126.835C570.285 126.964 566.724 127.072 556.097 127.851C562.225 127.379 558.855 127.56 565.701 127.178ZM631.307 130.955C631.642 130.787 637.679 128.626 639.909 127.96C639.551 128.059 633.478 130.093 631.307 130.955ZM284.462 225.306C282.982 226.56 294.558 217.726 291.493 220.037C290.857 220.595 285.985 224.295 284.462 225.306ZM310.849 171.731C310.464 169.853 312.01 177.401 311.879 177.443C311.956 177.394 310.997 171.938 310.849 171.731ZM671.434 178.021C671.604 178.372 672.611 183.783 672.56 183.965C672.753 185.777 672.403 182.171 671.706 179.23C671.012 176.29 670.282 173.974 671.434 178.021ZM246.314 152.563C249.032 150.593 246.211 152.465 243.629 154.734C241.024 157 238.814 159.691 240.862 157.415C240.978 157.103 245.988 152.664 246.314 152.563ZM232.072 175.591C232.007 173.959 234.115 167.204 234.318 167.18C234.132 166.963 231.851 174.734 232.072 175.591ZM578.03 202.555C578.128 203.374 575.283 193.98 575.116 190.558C574.911 189.771 576.572 199.424 578.03 202.555ZM629.164 228.117C608.625 228.884 600.989 224.621 602.378 225.393C603.716 225.691 614.394 229.278 631.595 227.932C631.645 227.939 631.745 227.955 629.164 228.117ZM581.98 210.596C582.757 211.887 585.595 215.696 588.039 217.788C587.502 217.518 583.073 212.641 581.98 210.596ZM269.578 234.166C271.898 233.176 281.45 227.417 279.749 228.423C279.433 228.816 268.824 234.716 269.578 234.166ZM672.192 181.394C672.209 180.54 673.358 189.778 672.967 192.828C672.945 193.312 672.893 193.659 672.877 193.782C672.656 194.998 672.842 194.385 672.953 192.828C673.257 189.556 672.439 182.06 672.192 181.394ZM590.96 149.374C592.598 147.905 597.777 144.437 601.384 142.742C599.735 143.48 593.521 147.115 590.96 149.374ZM575.644 173.316C575.603 173.047 577.211 167.67 577.398 167.468C578.288 165.344 577.123 167.924 576.361 170.566C575.585 173.202 575.16 175.848 575.644 173.316ZM27.2471 149.013C27.344 149.178 29.5215 152.691 29.5975 152.806C31.5211 155.944 24.9986 145.408 27.2471 149.013Z" fill="#3A405A"/>
</svg>
